<?xml version="1.0" standalone="no"?>
<!DOCTYPE svg PUBLIC "-//W3C//DTD SVG 20010904//EN"
 "http://www.w3.org/TR/2001/REC-SVG-20010904/DTD/svg10.dtd">
<svg version="1.0" xmlns="http://www.w3.org/2000/svg"
 width="608.000000pt" height="608.000000pt" viewBox="0 0 608.000000 608.000000"
 preserveAspectRatio="xMidYMid meet">
<metadata>
Created by potrace 1.14, written by Peter Selinger 2001-2017
</metadata>
<g transform="translate(0.000000,608.000000) scale(0.100000,-0.100000)"
fill="#000000" stroke="none">
<path d="M1493 5657 c-68 -35 -98 -52 -307 -175 -76 -45 -142 -82 -147 -82 -5
0 -9 -4 -9 -9 0 -5 -15 -15 -32 -22 -18 -7 -56 -28 -84 -45 -28 -18 -66 -41
-85 -52 -19 -11 -85 -49 -148 -86 -62 -36 -115 -66 -118 -66 -2 0 -9 -5 -16
-10 -7 -6 -79 -50 -162 -97 -82 -48 -152 -91 -153 -95 -2 -5 -7 -6 -10 -4 -15
9 -129 -82 -159 -128 -65 -95 -63 -68 -63 -946 0 -869 -1 -851 57 -944 43 -67
97 -111 252 -202 80 -47 153 -89 161 -94 148 -87 242 -140 248 -140 4 0 13 -5
20 -12 12 -12 101 -64 152 -90 14 -7 27 -15 30 -18 3 -3 16 -11 30 -18 14 -6
32 -16 40 -22 38 -25 151 -90 156 -90 3 0 30 -16 60 -35 30 -19 56 -35 58 -35
2 0 57 -32 122 -70 125 -74 159 -87 246 -96 64 -6 189 24 245 59 21 13 58 35
83 49 25 14 113 65 195 113 83 48 164 96 180 105 17 10 71 41 120 70 50 29
110 64 135 78 57 32 110 63 135 80 11 7 32 18 48 25 15 6 27 15 27 19 0 4 4 8
10 8 5 0 47 23 94 50 47 28 89 50 95 50 5 0 11 4 13 8 2 4 100 63 218 131 118
68 229 132 245 142 17 10 64 37 105 61 41 23 82 47 91 53 9 5 56 33 104 60 47
28 94 55 103 60 9 6 44 25 77 44 33 19 103 60 155 91 52 31 115 64 139 74 73
29 201 28 271 -1 8 -3 21 -7 28 -9 7 -1 34 -15 60 -32 26 -16 81 -48 122 -72
41 -24 86 -50 100 -59 14 -8 27 -16 30 -16 3 0 16 -8 30 -17 14 -8 95 -56 180
-105 85 -49 174 -101 196 -116 85 -53 148 -144 171 -247 13 -54 11 -920 -2
-965 -29 -108 -103 -191 -246 -276 -657 -393 -667 -398 -757 -401 -107 -3
-182 21 -317 102 -27 17 -59 35 -70 40 -11 6 -38 22 -60 35 -22 14 -47 28 -55
32 -8 3 -26 14 -40 23 -14 10 -45 28 -70 42 -204 113 -337 197 -374 235 -20
21 -51 67 -69 103 l-32 65 -2 294 c-2 162 -5 296 -7 298 -2 2 -53 -24 -112
-58 -136 -78 -274 -157 -339 -195 -27 -16 -61 -35 -75 -42 -14 -7 -35 -21 -48
-30 l-23 -18 0 -287 c1 -264 2 -292 22 -349 33 -100 101 -177 204 -234 11 -6
108 -62 215 -124 107 -62 209 -121 225 -130 62 -35 191 -111 205 -120 8 -6 24
-14 35 -20 11 -5 43 -23 70 -40 28 -17 70 -41 95 -55 25 -14 52 -30 60 -35 49
-32 360 -208 387 -219 21 -9 71 -12 160 -9 l128 3 95 55 c52 30 109 63 125 72
17 10 41 24 55 30 14 7 34 21 44 30 11 10 28 18 37 18 10 0 19 4 21 8 2 4 55
38 118 74 156 89 400 231 539 312 62 36 118 66 122 66 5 0 9 4 9 9 0 5 12 14
28 20 68 26 185 105 230 156 39 42 78 123 88 180 11 63 7 1624 -4 1667 -17 66
-54 130 -103 178 -42 41 -295 200 -320 200 -5 0 -9 5 -9 10 0 6 -4 10 -9 10
-5 0 -82 43 -172 96 -90 53 -173 100 -184 105 -11 5 -33 18 -50 29 -16 11 -37
23 -45 27 -8 4 -38 22 -67 40 -29 18 -54 33 -57 33 -2 0 -40 21 -83 46 -226
135 -389 225 -431 240 -46 15 -131 20 -182 11 -77 -14 -113 -31 -285 -133 -55
-33 -107 -63 -115 -67 -8 -4 -24 -13 -35 -20 -33 -20 -118 -71 -137 -82 -10
-5 -50 -29 -89 -52 -39 -24 -76 -43 -80 -43 -5 0 -9 -4 -9 -9 0 -5 -15 -15
-32 -22 -32 -13 -90 -48 -115 -69 -7 -5 -14 -10 -16 -10 -2 0 -91 -49 -198
-108 -107 -60 -223 -125 -259 -144 -86 -47 -158 -86 -195 -108 -30 -17 -376
-223 -405 -241 -8 -5 -76 -45 -150 -89 -74 -43 -139 -83 -145 -87 -5 -5 -21
-14 -35 -21 -14 -6 -54 -30 -90 -53 -81 -51 -152 -88 -182 -93 -13 -3 -23 -5
-23 -6 0 -1 -22 -4 -50 -5 -86 -5 -179 19 -260 68 -138 84 -188 114 -203 122
-113 66 -218 131 -220 137 -2 5 -7 8 -12 8 -16 0 -226 131 -272 170 -33 28
-59 64 -85 117 l-38 77 -2 463 c-1 499 0 521 52 608 14 25 38 58 53 73 28 28
128 102 138 102 3 0 53 28 112 63 59 35 114 66 122 70 8 4 29 16 45 27 17 10
46 27 65 37 19 9 37 20 40 23 3 4 30 20 60 37 30 17 83 47 118 67 109 65 149
79 237 81 106 4 161 -15 310 -105 66 -40 134 -81 150 -90 79 -46 151 -90 162
-100 7 -5 15 -10 17 -10 3 0 30 -16 60 -35 30 -19 60 -35 66 -35 5 0 10 -3 10
-8 0 -4 21 -18 48 -32 26 -14 53 -30 60 -37 7 -7 18 -13 23 -13 5 0 31 -22 57
-49 59 -60 90 -120 109 -208 3 -16 6 -153 6 -305 1 -153 3 -278 5 -278 3 0 26
13 51 28 25 16 53 31 61 35 8 4 33 18 55 32 22 13 74 44 115 67 41 23 84 48
95 55 11 7 28 16 38 19 9 3 17 10 17 14 0 4 8 10 18 13 18 6 120 63 137 77 11
9 12 584 2 628 -12 46 -55 129 -87 166 -33 37 -84 76 -150 113 -48 28 -428
252 -465 274 -16 11 -41 24 -55 31 -14 7 -39 23 -56 35 -17 13 -34 23 -37 23
-4 0 -62 33 -129 73 -68 40 -150 88 -183 107 -33 18 -62 36 -65 39 -3 4 -23
15 -45 26 -22 11 -41 23 -43 28 -2 4 -8 7 -14 7 -5 0 -22 8 -36 18 -15 11 -53
33 -85 50 -57 31 -62 32 -185 32 -123 0 -129 -1 -189 -33z"/>
</g>
</svg>
