<svg width="50" height="36" viewBox="0 0 50 36" fill="none" xmlns="http://www.w3.org/2000/svg">
    <path d="M42.5413 4.03973C38.3397 0.6632 31.6959 0.0911991 31.4151 0.0669325C30.9713 0.0287991 30.5501 0.280133 30.3681 0.685733C30.3612 0.6996 29.9903 1.776 29.6315 2.81427C34.5143 3.6688 37.8319 5.56507 38.0087 5.66907C38.8372 6.15093 39.1145 7.21347 38.6309 8.04027C38.3103 8.59147 37.7296 8.9 37.1333 8.9C36.8369 8.9 36.5388 8.82547 36.2649 8.666C36.2164 8.63653 31.3492 5.86667 25.0035 5.86667C18.656 5.86667 13.7871 8.63827 13.7385 8.666C12.9117 9.14613 11.8509 8.8636 11.3708 8.03507C10.8907 7.21 11.1697 6.15093 11.9948 5.66907C12.1716 5.56507 15.5013 3.66187 20.398 2.80907C20.0201 1.75867 19.6388 0.6996 19.6319 0.685733C19.4499 0.2784 19.0287 0.0218658 18.5849 0.0669325C18.3041 0.0894658 11.6603 0.661466 7.4032 4.0848C5.1776 6.14053 0.733337 18.1595 0.733337 28.5508C0.733337 28.7345 0.780137 28.9131 0.872004 29.0725C3.94174 34.4632 12.3103 35.8741 14.2169 35.9348C14.2291 35.9365 14.2395 35.9365 14.2499 35.9365C14.5861 35.9365 14.9033 35.7753 15.1027 35.5032L17.1653 32.7091C12.6413 31.6188 10.2493 29.9045 10.1055 29.7988C9.33587 29.232 9.16947 28.1469 9.73627 27.3756C10.3013 26.6077 11.3829 26.4379 12.1525 27.0012C12.2167 27.0428 16.6315 30.1333 25 30.1333C33.4015 30.1333 37.8041 27.0307 37.8475 26.9995C38.6171 26.4413 39.7021 26.6095 40.2655 27.3825C40.8271 28.1521 40.6641 29.2303 39.898 29.7953C39.7541 29.9011 37.3743 31.6119 32.8607 32.7021L34.8973 35.5015C35.0967 35.7753 35.4139 35.9348 35.7501 35.9348C35.7623 35.9348 35.7727 35.9348 35.7831 35.9331C37.6915 35.8724 46.06 34.4615 49.128 29.0708C49.2199 28.9113 49.2667 28.7328 49.2667 28.5491C49.2667 18.1595 44.8224 6.14053 42.5413 4.03973ZM18.0667 24.9333C16.1513 24.9333 14.6 22.9937 14.6 20.6C14.6 18.2063 16.1513 16.2667 18.0667 16.2667C19.982 16.2667 21.5333 18.2063 21.5333 20.6C21.5333 22.9937 19.982 24.9333 18.0667 24.9333ZM31.9333 24.9333C30.018 24.9333 28.4667 22.9937 28.4667 20.6C28.4667 18.2063 30.018 16.2667 31.9333 16.2667C33.8487 16.2667 35.4 18.2063 35.4 20.6C35.4 22.9937 33.8487 24.9333 31.9333 24.9333Z" fill="black"/>
    </svg>
    