<svg xmlns="http://www.w3.org/2000/svg" xmlns:xlink="http://www.w3.org/1999/xlink" version="1.1" id="Layer_1" x="0px" y="0px" viewBox="0 0 222.37 217.99" style="enable-background:new 0 0 222.37 217.99;" xml:space="preserve">
<path fill="#fff" class="st0" d="M159.03,41.95c0,0-12.92-12.12-28.6-2.37c-17.56,10.93-18.54,45.89-18.54,45.89S90.94,35.78,62.61,35.92  C32.7,36.06,42.87,86.64,47.63,105c5.12,19.71,30.93,80.53,55.65,77.06c0,0,17.73-1.23,19.7-39.59c0,0,11.19,26.98,26,25.53  c16.14-1.58,28.79-29.58,31.01-60.34C182.25,76.4,172.32,51.99,159.03,41.95z M104.19,155.39c-5.8,5.8-19.12-7.89-27.36-26.05  c-8.24-18.18-8.97-36.95-2.48-39.77c7.79-3.39,19.19,9.46,27.43,27.64C110.02,135.37,108.61,150.97,104.19,155.39z M160.58,109.58  c-0.96,19.04-8.34,34.69-15.6,34.69c-5.78,0-12.79-19.65-11.83-38.68c0.96-19.04,7.7-31.49,14.96-31.13  C155.37,74.83,161.54,90.56,160.58,109.58z"/>
</svg>